<?xml version="1.0" encoding="UTF-8"?>
<svg width="22px" height="22px" viewBox="0 0 22 22" version="1.1" xmlns="http://www.w3.org/2000/svg" xmlns:xlink="http://www.w3.org/1999/xlink">
    <title>Group 7</title>
    <g id="Symbols" stroke="none" stroke-width="1" fill="none" fill-rule="evenodd">
        <rect id="Bg" fill="#FFFFFF" x="-1287" y="-25" width="1440" height="70"></rect>
        <g id="Group-7">
            <path d="M8,1.5 C8.41421356,1.5 8.78921356,1.66789322 9.06066017,1.93933983 C9.33210678,2.21078644 9.5,2.58578644 9.5,3 C10.8912379,3.99914647 11.849108,4.81668881 12.5152904,5.81596236 C13.1339028,6.74388099 13.5,7.82904404 13.5,9.00003081 L13.5,9.00003081 L13.5004622,16.5000965 C14.1259038,16.499804 14.6837545,16.7872249 15.0504231,17.2364737 C15.3315307,17.5808917 15.5,18.0207866 15.5,18.5 L15.5,18.5 L0.5,18.5 L0.507792773,18.3221931 C0.538745567,17.9707068 0.660592083,17.6453033 0.849756373,17.3696964 L0.949839185,17.2361524 C1.31672129,16.7868311 1.87488374,16.4994756 2.50061071,16.5000972 L2.50061071,16.5000972 L2.5,9 C2.5,7.81420549 2.87514587,6.71599605 3.51347897,5.81779698 C4.1694996,4.89470978 5.10312427,4.18257697 6.19279431,3.80365593 C6.51744111,2.76705097 6.66798005,2.30768963 6.93994668,1.98606433 C7.20479542,1.67285657 7.58249552,1.5 8,1.5 Z" id="Combined-Shape" stroke="#979797"></path>
            <g id="Group-5" transform="translate(8.000000, 0.000000)">
                <circle id="Oval-2" fill="#EB3232" cx="7" cy="7" r="7"></circle>
                <text id="12" font-family="Helvetica" font-size="6" font-weight="normal" letter-spacing="-0.4285715" fill="#FFFFFF">
                    <tspan x="3.53808599" y="10">1</tspan>
                    <tspan x="6.44642855" y="10" letter-spacing="-0.3214286">2</tspan>
                </text>
            </g>
            <path d="M8.5,22 C9.42047458,22 10.2538079,21.1666667 11,19.5 L6,19.5 C6.74619208,21.1666667 7.57952542,22 8.5,22 Z" id="Oval-4" fill="#979797"></path>
        </g>
    </g>
</svg>