<?xml version="1.0" encoding="UTF-8"?>
<svg width="276px" height="182px" viewBox="0 0 276 182" version="1.1" xmlns="http://www.w3.org/2000/svg" xmlns:xlink="http://www.w3.org/1999/xlink">
    <title>db-item</title>
    <defs>
        <rect id="path-1" x="892" y="306" width="324" height="312" rx="2.4"></rect>
        <filter x="-17.6%" y="-10.6%" width="127.2%" height="128.2%" filterUnits="objectBoundingBox" id="filter-2">
            <feOffset dx="-13" dy="11" in="SourceAlpha" result="shadowOffsetOuter1"></feOffset>
            <feGaussianBlur stdDeviation="12.5" in="shadowOffsetOuter1" result="shadowBlurOuter1"></feGaussianBlur>
            <feColorMatrix values="0 0 0 0 0.677063474   0 0 0 0 0.712133347   0 0 0 0 0.85241284  0 0 0 0.170884284 0" type="matrix" in="shadowBlurOuter1"></feColorMatrix>
        </filter>
        <rect id="path-3" x="0" y="0" width="276" height="181.2"></rect>
        <path d="M1.89,0 L515.97,0 C517.013818,6.28508347e-14 517.86,0.846181823 517.86,1.89 L517.86,153.929025 L517.86,153.929025 L517.86,373.17 C517.86,374.213818 517.013818,375.06 515.97,375.06 L396.51657,375.06 L396.51657,375.06 L1.89,375.06 C0.846181823,375.06 7.51698639e-14,374.213818 0,373.17 L0,1.89 C9.4213746e-17,0.846181823 0.846181823,-1.33529746e-14 1.89,0 Z" id="path-5"></path>
    </defs>
    <g id="Vodafone---INS" stroke="none" stroke-width="1" fill="none" fill-rule="evenodd">
        <g id="Dashboard" transform="translate(-913.000000, -387.000000)">
            <g id="Mask">
                <use fill="black" fill-opacity="1" filter="url(#filter-2)" xlink:href="#path-1"></use>
                <use fill="#FFFFFF" fill-rule="evenodd" xlink:href="#path-1"></use>
            </g>
            <g id="db-item" transform="translate(913.000000, 387.000000)">
                <mask id="mask-4" fill="white">
                    <use xlink:href="#path-3"></use>
                </mask>
                <use id="Mask" fill="#EAEEF3" xlink:href="#path-3"></use>
                <g id="Chart" mask="url(#mask-4)">
                    <g transform="translate(-130.000000, -26.000000)">
                        <mask id="mask-6" fill="white">
                            <use xlink:href="#path-5"></use>
                        </mask>
                        <use id="Rectangle" stroke="none" fill="#FFFFFF" fill-rule="evenodd" xlink:href="#path-5"></use>
                        <g id="Lines,-x,-y" stroke="none" stroke-width="1" fill="none" fill-rule="evenodd" transform="translate(14.700000, 19.320000)">
                            <g id="y" transform="translate(74.760000, 156.240000)" font-family="Helvetica-Light, Helvetica" font-size="5.04" font-weight="300" letter-spacing="-0.0528000069">
                                <text id="Skill-2" fill="#2FB9EF">
                                    <tspan x="45.36" y="5.42">Skill 2</tspan>
                                </text>
                                <text id="Skill-3" fill="#F69855">
                                    <tspan x="91.14" y="5.84">Skill 3</tspan>
                                </text>
                                <text id="Skill-4" fill="#BED23F">
                                    <tspan x="136.5" y="5.42">Skill 4</tspan>
                                </text>
                                <text id="Skill-5" fill="#1CB8C4">
                                    <tspan x="184.8" y="5">Skill 5</tspan>
                                </text>
                                <text id="Skill-6" fill="#F7B500">
                                    <tspan x="227.64" y="5">Skill 6</tspan>
                                </text>
                            </g>
                            <g id="Lines" transform="translate(14.280000, 23.520000)" stroke="#8D9AA9" stroke-width="0.5">
                                <line x1="0.42" y1="129.045" x2="319.284355" y2="129.045" id="Path-8-Copy-5"></line>
                                <line x1="0.42" y1="77.385" x2="319.284355" y2="77.385" id="Path-8-Copy-10"></line>
                                <line x1="0.42" y1="52.29" x2="319.284355" y2="52.29" id="Path-8-Copy-11"></line>
                                <line x1="0.42" y1="25.83" x2="319.284355" y2="25.83" id="Path-8-Copy-13"></line>
                                <line x1="0.42" y1="0.21" x2="319.284355" y2="0.21" id="Path-8-Copy-15"></line>
                                <line x1="1.26" y1="103.845" x2="319.284355" y2="103.845" id="Path-8-Copy-8"></line>
                            </g>
                        </g>
                        <g id="Right-data" stroke="none" stroke-width="1" fill="none" fill-rule="evenodd" transform="translate(371.700000, 39.060000)">
                            <g id="5" transform="translate(0.000000, 103.320000)">
                                <text id="Skill-5" font-family="Helvetica" font-size="5.88" font-weight="normal" letter-spacing="-0.0616000101" fill="#1BD6DD">
                                    <tspan x="13.86" y="21.96">Skill 5</tspan>
                                </text>
                                <text id="+22%" font-family="Helvetica" font-size="12.6" font-weight="normal" letter-spacing="0.00378000101" fill="#1BD6DD">
                                    <tspan x="13.86" y="13">+22</tspan>
                                    <tspan x="35.2445822" y="13" font-size="9.24" letter-spacing="0.00277200057">%</tspan>
                                </text>
                                <g id="Check-box" transform="translate(0.000000, 4.200000)" stroke="#1BD6DD" stroke-width="0.5">
                                    <rect id="square" x="0.25" y="0.25" width="7.9" height="7.9" rx="0.84"></rect>
                                    <polyline id="tick" points="2.56679168 4.13279174 3.76289877 5.32889883 6.0812573 3.01054029"></polyline>
                                </g>
                            </g>
                            <g id="3" transform="translate(0.000000, 51.660000)">
                                <text id="Skill-3" font-family="Helvetica" font-size="5.88" font-weight="normal" letter-spacing="-0.0616000101" fill="#F69855">
                                    <tspan x="13.86" y="21.96">Skill 3</tspan>
                                </text>
                                <text id="+51%" font-family="Helvetica" font-size="12.6" font-weight="normal" letter-spacing="0.00378000101" fill="#F69855">
                                    <tspan x="13.86" y="13">+51</tspan>
                                    <tspan x="35.2445822" y="13" font-size="9.24" letter-spacing="0.00277200057">%</tspan>
                                </text>
                                <g id="Check-box" transform="translate(0.000000, 4.200000)" stroke="#F69855" stroke-width="0.5">
                                    <rect id="square" x="0.25" y="0.25" width="7.9" height="7.9" rx="0.84"></rect>
                                    <polyline id="tick" points="2.56679168 4.13279174 3.76289877 5.32889883 6.0812573 3.01054029"></polyline>
                                </g>
                            </g>
                            <g id="1">
                                <text id="Skill-1" font-family="Helvetica" font-size="5.88" font-weight="normal" letter-spacing="-0.0616000101" fill="#EA4C89">
                                    <tspan x="13.86" y="21.96">Skill 1</tspan>
                                </text>
                                <text id="+30%" font-family="Helvetica" font-size="12.6" font-weight="normal" letter-spacing="0.00378000101" fill="#E84F89">
                                    <tspan x="13.86" y="13">+30</tspan>
                                    <tspan x="35.2445822" y="13" font-size="9.24" letter-spacing="0.00277200057">%</tspan>
                                </text>
                                <g id="Check-box" transform="translate(0.000000, 4.200000)" stroke="#E84F89" stroke-width="0.5">
                                    <rect id="square" x="0.25" y="0.25" width="7.9" height="7.9" rx="0.84"></rect>
                                    <polyline id="tick" points="2.56679168 4.13279174 3.76289877 5.32889883 6.0812573 3.01054029"></polyline>
                                </g>
                            </g>
                        </g>
                        <g id="Time-drop-down" stroke="none" stroke-width="1" fill="none" fill-rule="evenodd" transform="translate(199.500000, 207.060000)" font-family="Helvetica" font-size="5.88" font-weight="normal" line-spacing="7.56">
                            <text id="Before-INS-(Oct-2017" fill="#686868">
                                <tspan x="14.445293" y="6">    Before INS (Oct 2017)  vs               After INS </tspan>
                                <tspan x="61.501084" y="13.56">(Oct 2020)</tspan>
                            </text>
                        </g>
                        <g id="x" stroke="none" stroke-width="1" fill="none" fill-rule="evenodd" transform="translate(331.800000, 188.580000)" font-family="Helvetica" font-size="5.88" font-weight="normal" line-spacing="7.56">
                            <text id="Skills" fill="#686868">
                                <tspan x="1.11952148" y="6">Skill</tspan>
                                <tspan x="5.04" y="13.56">s</tspan>
                            </text>
                        </g>
                        <g id="Columns" stroke="none" stroke-width="1" fill="none" fill-rule="evenodd" transform="translate(90.720000, 59.640000)">
                            <g id="16-skills" transform="translate(228.900000, 56.700000)" fill="#F7B500">
                                <path d="M6.72,0 L9.66,0 C10.3558788,-3.49875464e-16 10.92,0.564121215 10.92,1.26 L10.92,55.44 L10.92,55.44 L5.46,55.44 L5.46,1.26 C5.46,0.564121215 6.02412122,-2.09261519e-15 6.72,0 Z" id="normal"></path>
                                <path d="M1.26,22.68 L4.2,22.68 C4.89587878,22.68 5.46,23.2441212 5.46,23.94 L5.46,42.1310842 L5.46,42.1310842 L5.46,55.44 L0,55.44 L0,23.94 C-8.52205726e-17,23.2441212 0.564121215,22.68 1.26,22.68 Z" id="trs" fill-opacity="0.5"></path>
                            </g>
                            <g id="14-skills" transform="translate(183.120000, 43.260000)" fill="#1CB8C4">
                                <path d="M6.72,0 L9.66,0 C10.3558788,-1.27830859e-16 10.92,0.564121215 10.92,1.26 L10.92,68.88 L10.92,68.88 L5.46,68.88 L5.46,1.26 C5.46,0.564121215 6.02412122,5.23485677e-15 6.72,0 Z" id="normal"></path>
                                <path d="M1.26,44.52 L4.2,44.52 C4.89587878,44.52 5.46,45.0841212 5.46,45.78 L5.46,58.9836267 L5.46,58.9836267 L5.46,68.88 L0,68.88 L0,45.78 C-8.52205726e-17,45.0841212 0.564121215,44.52 1.26,44.52 Z" id="trs" fill-opacity="0.5"></path>
                            </g>
                            <g id="12-skills" transform="translate(137.340000, 12.600000)" fill="#BED23F">
                                <path d="M6.72,0 L9.66,0 C10.3558788,-3.49875464e-16 10.92,0.564121215 10.92,1.26 L10.92,99.54 L10.92,99.54 L5.46,99.54 L5.46,1.26 C5.46,0.564121215 6.02412122,-8.97599794e-15 6.72,0 Z" id="normal"></path>
                                <path d="M1.26,66.78 L4.2,66.78 C4.89587878,66.78 5.46,67.3441212 5.46,68.04 L5.46,86.2310842 L5.46,86.2310842 L5.46,99.54 L0,99.54 L0,68.04 C-8.52205726e-17,67.3441212 0.564121215,66.78 1.26,66.78 Z" id="trs" fill-opacity="0.5"></path>
                            </g>
                            <g id="10-skills" transform="translate(91.560000, 21.840000)" fill="#F69855">
                                <path d="M6.72,0 L9.66,0 C10.3558788,-9.67939983e-16 10.92,0.564121215 10.92,1.26 L10.92,90.3 L10.92,90.3 L5.46,90.3 L5.46,1.26 C5.46,0.564121215 6.02412122,-8.97599794e-15 6.72,0 Z" id="normal"></path>
                                <path d="M1.26,68.04 L4.2,68.04 C4.89587878,68.04 5.46,68.6041212 5.46,69.3 L5.46,81.2567623 L5.46,81.2567623 L5.46,90.3 L0,90.3 L0,69.3 C-8.52205726e-17,68.6041212 0.564121215,68.04 1.26,68.04 Z" id="trs" fill-opacity="0.5"></path>
                            </g>
                            <g id="6-skills" transform="translate(45.780000, 5.880000)" fill="#2FB9EF">
                                <path d="M6.72,0 L9.66,0 C10.3558788,-5.23850773e-16 10.92,0.564121215 10.92,1.26 L10.92,106.26 L10.92,106.26 L5.46,106.26 L5.46,1.26 C5.46,0.564121215 6.02412122,5.45690138e-15 6.72,0 Z" id="normal"></path>
                                <path d="M1.26,63.84 L4.2,63.84 C4.89587878,63.84 5.46,64.4041212 5.46,65.1 L5.46,89.0266603 L5.46,89.0266603 L5.46,106.26 L0,106.26 L0,65.1 C-8.52205726e-17,64.4041212 0.564121215,63.84 1.26,63.84 Z" id="trs" fill-opacity="0.5"></path>
                            </g>
                        </g>
                        <line x1="250.11" y1="110.25" x2="470.19" y2="110.25" id="Path-8-Copy-6" stroke="#BBBBBB" stroke-width="0.5" fill="none" transform="translate(360.150000, 110.250000) rotate(-270.000000) translate(-360.150000, -110.250000) "></line>
                    </g>
                </g>
            </g>
        </g>
    </g>
</svg>