<?xml version="1.0" encoding="UTF-8"?>
<svg width="1304px" height="314px" viewBox="0 0 1304 314" version="1.1" xmlns="http://www.w3.org/2000/svg" xmlns:xlink="http://www.w3.org/1999/xlink">
    <g id="Vodafone---INS" stroke="none" stroke-width="1" fill="none" fill-rule="evenodd">
        <g id="Framework---Add-your-own" transform="translate(-66.000000, -710.000000)">
            <g id="Bobble-Graph-Chat" transform="translate(66.000000, 710.000000)">
                <g id="lines" transform="translate(20.000000, 31.000000)" opacity="0.41796875" stroke="#BDC7DE" stroke-linecap="square">
                    <line x1="1.5" y1="0.438080495" x2="1.5" y2="282.296497" id="Line-2"></line>
                    <line x1="80.5" y1="0.438080495" x2="80.5" y2="282.296497" id="Line-2-Copy"></line>
                    <line x1="159.5" y1="0.438080495" x2="159.5" y2="282.296497" id="Line-2-Copy-2"></line>
                    <line x1="238.5" y1="0.438080495" x2="238.5" y2="282.296497" id="Line-2-Copy-3"></line>
                    <line x1="317.5" y1="0.438080495" x2="317.5" y2="282.296497" id="Line-2-Copy-4"></line>
                    <line x1="397.5" y1="0.438080495" x2="397.5" y2="282.296497" id="Line-2-Copy-5"></line>
                    <line x1="476.5" y1="0.438080495" x2="476.5" y2="282.296497" id="Line-2-Copy-6"></line>
                    <line x1="871.5" y1="0.438080495" x2="871.5" y2="282.296497" id="Line-2-Copy-11"></line>
                    <line x1="555.5" y1="0.438080495" x2="555.5" y2="282.296497" id="Line-2-Copy-7"></line>
                    <line x1="950.5" y1="0.438080495" x2="950.5" y2="282.296497" id="Line-2-Copy-12"></line>
                    <line x1="634.5" y1="0.438080495" x2="634.5" y2="282.296497" id="Line-2-Copy-8"></line>
                    <line x1="1030.5" y1="0.438080495" x2="1030.5" y2="282.296497" id="Line-2-Copy-13"></line>
                    <line x1="792.5" y1="0.438080495" x2="792.5" y2="282.296497" id="Line-2-Copy-9"></line>
                    <line x1="1188.5" y1="0.438080495" x2="1188.5" y2="282.296497" id="Line-2-Copy-14"></line>
                    <line x1="1267.5" y1="0.438080495" x2="1267.5" y2="282.296497" id="Line-2-Copy-16"></line>
                    <line x1="713.5" y1="0.438080495" x2="713.5" y2="282.296497" id="Line-2-Copy-10"></line>
                    <line x1="1109.5" y1="0.438080495" x2="1109.5" y2="282.296497" id="Line-2-Copy-15"></line>
                </g>
                <circle id="Oval-7-Copy" fill="#6A57B0" opacity="0.541667475" cx="20" cy="185" r="20"></circle>
                <circle id="Oval-7-Copy-3" fill="#BB2889" opacity="0.573810333" cx="266.5" cy="141.5" r="23.5"></circle>
                <circle id="Oval-7-Copy-4" fill="#EA550F" opacity="0.358129529" cx="416" cy="155" r="16"></circle>
                <circle id="Oval-7-Copy-5" fill="#6D4EDA" opacity="0.358129529" cx="573" cy="105" r="11"></circle>
                <circle id="Oval-7-Copy-6" fill="#6D4EDA" opacity="0.459747833" cx="698" cy="185" r="24"></circle>
                <circle id="Oval-7-Copy-7" fill="#6D4EDA" opacity="0.459747833" cx="885.5" cy="82.5" r="15.5"></circle>
                <circle id="Oval-7-Copy-8" fill="#6234CE" opacity="0.408854975" cx="1006" cy="20" r="20"></circle>
                <circle id="Oval-7-Copy-9" fill="#6D4EDA" opacity="0.358129529" cx="1123" cy="105" r="15"></circle>
                <circle id="Oval-7-Copy-10" fill="#6D4EDA" opacity="0.358129529" cx="1289" cy="98" r="15"></circle>
                <circle id="Oval-7-Copy-2" fill="#EDBED1" cx="179" cy="83" r="11"></circle>
                <circle id="Oval-7-Copy-12" fill="#BB2889" opacity="0.578655538" style="mix-blend-mode: darken;" cx="643" cy="127" r="12"></circle>
                <circle id="Oval-7-Copy-23" fill="#2838AE" opacity="0.191745924" style="mix-blend-mode: darken;" cx="799.5" cy="172.5" r="7.5"></circle>
                <circle id="Oval-7-Copy-18" fill="#6A57B0" opacity="0.691758055" style="mix-blend-mode: darken;" cx="526.5" cy="195.5" r="22.5"></circle>
                <circle id="Oval-7-Copy-12" fill="#EA550F" opacity="0.358129529" cx="842" cy="95" r="12"></circle>
                <circle id="Oval-7-Copy-13" fill="#F8478E" opacity="0.62885449" cx="932" cy="146" r="12"></circle>
                <circle id="Oval-7-Copy-14" fill="#EA550F" opacity="0.358129529" cx="1050" cy="143" r="12"></circle>
                <circle id="Oval-7-Copy-15" fill="#9F47D0" opacity="0.660271901" cx="1247" cy="141" r="12"></circle>
                <circle id="Oval-7-Copy-16" fill="#590C84" opacity="0.215126812" cx="103" cy="145" r="12"></circle>
            </g>
        </g>
    </g>
</svg>