<?xml version="1.0" encoding="UTF-8"?>
<svg width="10px" height="11px" viewBox="0 0 10 11" version="1.1" xmlns="http://www.w3.org/2000/svg" xmlns:xlink="http://www.w3.org/1999/xlink">
    <title>Vodafone - edit</title>
    <g id="Vodafone---edit" stroke="none" stroke-width="1" fill="none" fill-rule="evenodd">
        <g id="Lessons---Edit-4" transform="translate(-474.000000, -354.000000)">
            <g id="Drop-downs" transform="translate(162.000000, 277.000000)">
                <path d="M338,63.5 C338.414214,63.5 338.789214,63.6678932 339.06066,63.9393398 C339.332107,64.2107864 339.5,64.5857864 339.5,65 L339.5,65 L339.5,100 C339.5,100.414214 339.332107,100.789214 339.06066,101.06066 C338.789214,101.332107 338.414214,101.5 338,101.5 L338,101.5 L100,101.5 C99.5857864,101.5 99.2107864,101.332107 98.9393398,101.06066 C98.6678932,100.789214 98.5,100.414214 98.5,100 L98.5,100 L98.5,65 C98.5,64.5857864 98.6678932,64.2107864 98.9393398,63.9393398 C99.2107864,63.6678932 99.5857864,63.5 100,63.5 L100,63.5 Z" id="Rectangle-2" stroke="#FFFFFF"></path>
                <g id="Add" transform="translate(317.000000, 83.000000) rotate(45.000000) translate(-317.000000, -83.000000) translate(311.000000, 77.000000)" stroke="#8954BA" stroke-linecap="square" stroke-width="1.4">
                    <line x1="5.6" y1="0" x2="5.6" y2="11.2" id="Line-4"></line>
                    <line x1="0" y1="5.6" x2="11.2" y2="5.6" id="Line-5"></line>
                </g>
            </g>
        </g>
    </g>
</svg>