<svg width="38px" height="36px" viewBox="0 0 38 36" version="1.1" xmlns="http://www.w3.org/2000/svg" xmlns:xlink="http://www.w3.org/1999/xlink">
    <title>Settings</title>
    <defs>
        <polygon id="path-1" points="0 0 31.2 0 31.2 10.8 15.6 10.8 15.6 31.2 0 31.2"></polygon>
    </defs>
    <g id="Vodafone---INS" stroke="none" stroke-width="1" fill="none" fill-rule="evenodd">
        <g id="Left-menu" transform="translate(-17.000000, -556.000000)">
            <rect id="Left-menu-rectangle" fill="#FFFFFF" x="0" y="0" width="80" height="1400"></rect>
            <g id="Settings" transform="translate(17.000000, 556.000000)">
                <g id="Rectangle-9-Copy">
                    <mask id="mask-2" fill="white">
                        <use xlink:href="#path-1"></use>
                    </mask>
                    <use id="Mask" fill="#FFFFFF" xlink:href="#path-1"></use>
                    <rect stroke="#767676" stroke-width="1.2" mask="url(#mask-2)" x="6.6" y="5.4" width="22.8" height="22.8" rx="2.4"></rect>
                </g>
                <g id="Group-5" transform="translate(18.000000, 14.400000)" fill-rule="nonzero" stroke="#767676" stroke-width="1.2">
                    <path d="M11.5760421,0 C11.8227748,0 12.0300304,0.177647597 12.0596383,0.414511059 L12.0596383,0.414511059 L12.4346721,3.02987846 C13.0367001,3.27661123 13.5893815,3.60229849 14.1025857,3.99707093 L14.1025857,3.99707093 L16.5600441,3.01013984 C16.7771689,2.93118535 17.0436403,3.01013984 17.1620721,3.22726468 L17.1620721,3.22726468 L19.1359342,6.64204626 C19.254366,6.8591711 19.2050194,7.1256425 19.0175025,7.27368216 L19.0175025,7.27368216 L16.9350779,8.90211846 C16.9745551,9.21793641 17.0041631,9.53375436 17.0041631,9.86931094 C17.0041631,10.2048675 16.9745551,10.5206855 16.9350779,10.8365034 L16.9350779,10.8365034 L19.0175025,12.4649397 C19.2050194,12.6129794 19.254366,12.8794508 19.1359342,13.0965756 L19.1359342,13.0965756 L17.1620721,16.5113572 C17.0436403,16.728482 16.7870382,16.8173058 16.5600441,16.728482 L16.5600441,16.728482 L14.1025857,15.7415509 C13.5893815,16.1264541 13.0367001,16.4620106 12.4346721,16.7087434 L12.4346721,16.7087434 L12.0596383,19.3241108 C12.0300304,19.5609743 11.8227748,19.7386219 11.5760421,19.7386219 L11.5760421,19.7386219 L7.62831769,19.7386219 C7.38158492,19.7386219 7.17432939,19.5609743 7.14472146,19.3241108 L7.14472146,19.3241108 L6.76968764,16.7087434 C6.16765967,16.4620106 5.61497826,16.1363234 5.10177409,15.7415509 L5.10177409,15.7415509 L2.64431567,16.728482 C2.42719083,16.8074365 2.16071943,16.728482 2.0422877,16.5113572 L2.0422877,16.5113572 L0.0684255157,13.0965756 C-0.0500062155,12.8794508 -0.000659660863,12.6129794 0.186857247,12.4649397 L0.186857247,12.4649397 L2.26928185,10.8365034 C2.22980461,10.5206855 2.20019668,10.1949982 2.20019668,9.86931094 C2.20019668,9.54362367 2.22980461,9.21793641 2.26928185,8.90211846 L2.26928185,8.90211846 L0.186857247,7.27368216 C-0.000659660863,7.1256425 -0.0598755265,6.8591711 0.0684255157,6.64204626 L0.0684255157,6.64204626 L2.0422877,3.22726468 C2.16071943,3.01013984 2.41732152,2.92131604 2.64431567,3.01013984 L2.64431567,3.01013984 L5.10177409,3.99707093 C5.61497826,3.6121678 6.16765967,3.27661123 6.76968764,3.02987846 L6.76968764,3.02987846 L7.14472146,0.414511059 C7.17432939,0.177647597 7.38158492,0 7.62831769,0 L7.62831769,0 Z M9.60217988,6.41505211 C7.69740287,6.41505211 6.14792105,7.96453392 6.14792105,9.86931094 C6.14792105,11.7740879 7.69740287,13.3235698 9.60217988,13.3235698 C11.5069569,13.3235698 13.0564387,11.7740879 13.0564387,9.86931094 C13.0564387,7.96453392 11.5069569,6.41505211 9.60217988,6.41505211 Z" id="Shape"></path>
                </g>
            </g>
        </g>
    </g>
</svg>