<?xml version="1.0" encoding="UTF-8"?>
<svg width="15px" height="14px" viewBox="0 0 15 14" version="1.1" xmlns="http://www.w3.org/2000/svg" xmlns:xlink="http://www.w3.org/1999/xlink">
    <title>Delete</title>
    <g id="Vodafone---INS" stroke="none" stroke-width="1" fill="none" fill-rule="evenodd">
        <g id="Upload-2" transform="translate(-810.000000, -559.000000)" stroke="#979797" stroke-width="0.85">
            <g id="Delete" transform="translate(811.000000, 559.000000)">
                <path d="M11.2625,2.3375 L11.2625,12.5389915 C11.2625,12.773734 11.1682634,12.9864036 11.0143948,13.1400839 C10.8609634,13.2933277 10.6484944,13.3875 10.4124316,13.3875 L10.4124316,13.3875 L2.97506836,13.3875 C2.74062771,13.3875 2.52848118,13.2918692 2.37473143,13.1383075 C2.22071597,12.9844805 2.125,12.7723344 2.125,12.5389915 L2.125,12.5389915 L2.125,2.3375 L11.2625,2.3375 Z" id="Rectangle-14"></path>
                <line x1="0.202982967" y1="2.3375" x2="12.952983" y2="2.3375" id="Path-19" stroke-linecap="round"></line>
                <path d="M7.75001205,0.425 C8.01652982,0.425 8.25805614,0.531322569 8.43257909,0.705060889 C8.60575734,0.87746055 8.7125,1.11608194 8.7125,1.38125 L8.7125,1.38125 L8.7125,2.3375 L4.675,2.3375 L4.675,1.38125 C4.675,1.11719729 4.78221687,0.878165161 4.95594354,0.705219548 C5.13009563,0.531850415 5.37093451,0.425 5.63748795,0.425 L5.63748795,0.425 Z" id="Rectangle-15"></path>
                <line x1="4.4625" y1="4.7996751" x2="4.4625" y2="11.3796779" id="Path-20" stroke-linecap="round"></line>
                <line x1="6.5875" y1="5.4371751" x2="6.5875" y2="10.9536749" id="Path-20" stroke-linecap="round"></line>
                <line x1="8.7125" y1="4.7996751" x2="8.7125" y2="11.3796779" id="Path-20" stroke-linecap="round"></line>
            </g>
        </g>
    </g>
</svg>